<svg xmlns="http://www.w3.org/2000/svg" xmlns:xlink="http://www.w3.org/1999/xlink" width="1080" zoomAndPan="magnify" viewBox="0 0 810 809.999993" height="1080" preserveAspectRatio="xMidYMid meet" version="1.0"><rect x="-81" width="972" fill="#ffffff" y="-80.999999" height="971.999992" fill-opacity="1"/><path stroke-linecap="butt" transform="matrix(1.416596, 0, 0, 1.416441, -1161.195514, -270.787555)" fill="none" stroke-linejoin="miter" d="M 1332.000664 480.001062 C 1332.000664 483.812332 1331.90691 487.623602 1331.7194 491.432114 C 1331.531891 495.240626 1331.250627 499.043622 1330.878365 502.838345 C 1330.503347 506.633068 1330.037331 510.41676 1329.47756 514.189421 C 1328.917789 517.959324 1328.267021 521.715438 1327.522499 525.455005 C 1326.777976 529.194572 1325.942456 532.914835 1325.015939 536.613035 C 1324.089422 540.313993 1323.074666 543.987373 1321.966154 547.635933 C 1320.8604 551.284493 1319.663649 554.905475 1318.378659 558.496122 C 1317.093668 562.086768 1315.723195 565.641563 1314.264482 569.166022 C 1312.805769 572.687724 1311.258817 576.173574 1309.62914 579.620815 C 1307.999462 583.068056 1306.284303 586.471173 1304.486419 589.83568 C 1302.691292 593.19743 1300.810683 596.515054 1298.850107 599.785797 C 1296.889531 603.056539 1294.851745 606.277641 1292.731235 609.449103 C 1290.613481 612.617807 1288.418519 615.734113 1286.146346 618.798021 C 1283.876931 621.861929 1281.530306 624.865165 1279.111986 627.813246 C 1276.693667 630.761327 1274.203652 633.648736 1271.641943 636.472716 C 1269.080234 639.299453 1266.452345 642.060004 1263.755519 644.757125 C 1261.058693 647.451489 1258.298444 650.079666 1255.472016 652.641655 C 1252.648345 655.203645 1249.761252 657.691174 1246.813494 660.112516 C 1243.865736 662.531101 1240.860071 664.875225 1237.796499 667.147646 C 1234.735683 669.420067 1231.616961 671.612513 1228.448604 673.733255 C 1225.277489 675.85124 1222.05674 677.889249 1218.786355 679.85004 C 1215.515971 681.810831 1212.198709 683.688888 1208.83457 685.486969 C 1205.473189 687.28505 1202.067687 689.000397 1198.620824 690.630252 C 1195.17396 692.260108 1191.688491 693.804472 1188.164418 695.263345 C 1184.643102 696.722217 1181.085938 698.095598 1177.495685 699.380729 C 1173.905432 700.663103 1170.284846 701.859985 1166.636685 702.96586 C 1162.988525 704.074493 1159.312789 705.089361 1155.614994 706.015979 C 1151.914441 706.942597 1148.194585 707.778209 1144.455428 708.522813 C 1140.71627 709.267417 1136.960567 709.918256 1133.188319 710.478088 C 1129.416071 711.03792 1125.632794 711.503987 1121.838486 711.879047 C 1118.044179 712.251349 1114.241598 712.532644 1110.433503 712.720174 C 1106.622651 712.907703 1102.811798 712.998711 1099.000946 712.998711 C 1095.187335 712.998711 1091.376483 712.907703 1087.568388 712.720174 C 1083.757535 712.532644 1079.957713 712.251349 1076.160647 711.879047 C 1072.36634 711.503987 1068.583062 711.03792 1064.810814 710.478088 C 1061.038567 709.918256 1057.282864 709.267417 1053.543706 708.522813 C 1049.804548 707.778209 1046.084693 706.942597 1042.386897 706.015979 C 1038.686344 705.089361 1035.013366 704.074493 1031.362448 702.96586 C 1027.714288 701.859985 1024.093702 700.663103 1020.503449 699.380729 C 1016.913195 698.095598 1013.358789 696.722217 1009.834716 695.263345 C 1006.310642 693.804472 1002.827931 692.260108 999.37831 690.630252 C 995.931446 689.000397 992.528702 687.28505 989.164563 685.486969 C 985.800424 683.688888 982.48592 681.810831 979.212778 679.85004 C 975.942394 677.889249 972.721644 675.85124 969.553287 673.733255 C 966.382172 671.612513 963.26345 669.420067 960.202635 667.147646 C 957.139063 664.875225 954.133397 662.531101 951.185639 660.112516 C 948.237882 657.691174 945.353546 655.203645 942.527118 652.641655 C 939.700689 650.079666 936.940441 647.451489 934.243615 644.757125 C 931.546788 642.060004 928.918899 639.299453 926.35719 636.472716 C 923.798239 633.648736 921.308224 630.761327 918.889905 627.813246 C 916.468828 624.865165 914.12496 621.861929 911.852788 618.798021 C 909.580615 615.734113 907.385652 612.617807 905.267899 609.449103 C 903.150146 606.277641 901.109603 603.056539 899.149026 599.785797 C 897.18845 596.515054 895.310599 593.19743 893.512715 589.83568 C 891.714831 586.471173 889.999671 583.068056 888.369994 579.620815 C 886.740317 576.173574 885.196122 572.687724 883.734652 569.166022 C 882.275939 565.641563 880.905466 562.086768 879.620475 558.496122 C 878.335484 554.905475 877.138733 551.284493 876.032979 547.635933 C 874.927225 543.987373 873.909711 540.313993 872.983194 536.613035 C 872.056677 532.914835 871.221157 529.194572 870.476635 525.455005 C 869.732112 521.715438 869.081344 517.959324 868.521574 514.189421 C 867.961803 510.41676 867.495787 506.633068 867.120768 502.838345 C 866.748507 499.043622 866.467243 495.240626 866.279733 491.432114 C 866.092224 487.623602 866.001227 483.812332 866.001227 480.001062 C 866.001227 476.187035 866.092224 472.375765 866.279733 468.567253 C 866.467243 464.758741 866.748507 460.955745 867.120768 457.161022 C 867.495787 453.366299 867.961803 449.582607 868.521574 445.812704 C 869.081344 442.040043 869.732112 438.283929 870.476635 434.544362 C 871.221157 430.804795 872.056677 427.084532 872.983194 423.386332 C 873.909711 419.685374 874.927225 416.011994 876.032979 412.363434 C 877.138733 408.714874 878.335484 405.093892 879.620475 401.503245 C 880.905466 397.915357 882.275939 394.357804 883.734652 390.833345 C 885.196122 387.311643 886.740317 383.825793 888.369994 380.378552 C 889.999671 376.931311 891.714831 373.528194 893.512715 370.163687 C 895.310599 366.801937 897.18845 363.484313 899.149026 360.21357 C 901.109603 356.942828 903.150146 353.721726 905.267899 350.553022 C 907.385652 347.38156 909.580615 344.265254 911.852788 341.201346 C 914.12496 338.140196 916.468828 335.134202 918.889905 332.186121 C 921.308224 329.23804 923.798239 326.353389 926.35719 323.526651 C 928.918899 320.702671 931.546788 317.939363 934.243615 315.244999 C 936.940441 312.547878 939.700689 309.919701 942.527118 307.357712 C 945.353546 304.79848 948.237882 302.308193 951.185639 299.889609 C 954.133397 297.468266 957.139063 295.124142 960.202635 292.851721 C 963.26345 290.582057 966.382172 288.386854 969.553287 286.268869 C 972.721644 284.148127 975.942394 282.110118 979.212778 280.149327 C 982.48592 278.188536 985.800424 276.310479 989.164563 274.512398 C 992.528702 272.714317 995.931446 271.001728 999.37831 269.369115 C 1002.827931 267.739259 1006.310642 266.194895 1009.834716 264.736022 C 1013.358789 263.27715 1016.913195 261.903769 1020.503449 260.621395 C 1024.093702 259.336264 1027.714288 258.139382 1031.362448 257.033507 C 1035.013366 255.924874 1038.686344 254.910006 1042.38414 253.983388 C 1046.084693 253.05677 1049.804548 252.221158 1053.543706 251.476554 C 1057.282864 250.73195 1061.038567 250.081111 1064.810814 249.521279 C 1068.583062 248.961447 1072.36634 248.49538 1076.160647 248.123078 C 1079.957713 247.748018 1083.757535 247.466723 1087.568388 247.281951 C 1091.376483 247.094421 1095.187335 247.000656 1099.000946 247.000656 C 1102.811798 247.000656 1106.622651 247.094421 1110.433503 247.281951 C 1114.241598 247.466723 1118.044179 247.748018 1121.838486 248.123078 C 1125.632794 248.49538 1129.416071 248.961447 1133.188319 249.521279 C 1136.960567 250.081111 1140.71627 250.73195 1144.455428 251.476554 C 1148.194585 252.221158 1151.914441 253.05677 1155.614994 253.983388 C 1159.312789 254.910006 1162.988525 255.924874 1166.636685 257.033507 C 1170.284846 258.139382 1173.905432 259.336264 1177.495685 260.621395 C 1181.085938 261.903769 1184.643102 263.27715 1188.164418 264.736022 C 1191.688491 266.194895 1195.17396 267.739259 1198.620824 269.369115 C 1202.067687 271.001728 1205.473189 272.714317 1208.83457 274.512398 C 1212.198709 276.310479 1215.515971 278.188536 1218.786355 280.149327 C 1222.05674 282.110118 1225.277489 284.148127 1228.448604 286.268869 C 1231.616961 288.386854 1234.735683 290.582057 1237.796499 292.851721 C 1240.860071 295.124142 1243.865736 297.468266 1246.813494 299.889609 C 1249.761252 302.308193 1252.648345 304.79848 1255.472016 307.357712 C 1258.298444 309.919701 1261.058693 312.547878 1263.755519 315.244999 C 1266.452345 317.939363 1269.080234 320.702671 1271.641943 323.526651 C 1274.203652 326.353389 1276.693667 329.23804 1279.111986 332.186121 C 1281.530306 335.134202 1283.876931 338.140196 1286.146346 341.201346 C 1288.418519 344.265254 1290.613481 347.38156 1292.731235 350.553022 C 1294.851745 353.721726 1296.889531 356.942828 1298.850107 360.21357 C 1300.810683 363.484313 1302.691292 366.801937 1304.486419 370.163687 C 1306.284303 373.528194 1307.999462 376.931311 1309.62914 380.378552 C 1311.258817 383.825793 1312.805769 387.311643 1314.264482 390.833345 C 1315.723195 394.357804 1317.096425 397.915357 1318.378659 401.503245 C 1319.663649 405.093892 1320.8604 408.714874 1321.966154 412.363434 C 1323.074666 416.011994 1324.089422 419.685374 1325.015939 423.386332 C 1325.942456 427.084532 1326.777976 430.804795 1327.522499 434.544362 C 1328.267021 438.283929 1328.917789 442.040043 1329.47756 445.812704 C 1330.037331 449.582607 1330.503347 453.366299 1330.878365 457.161022 C 1331.250627 460.955745 1331.531891 464.758741 1331.7194 468.567253 C 1331.90691 472.375765 1332.000664 476.187035 1332.000664 480.001062 Z M 1332.000664 480.001062 " stroke="#04b0a8" stroke-width="2" stroke-opacity="1" stroke-miterlimit="4"/><path fill="#04b0a8" d="M 676.605469 644.617188 C 676.8125 645.109375 677 645.609375 677.15625 646.117188 C 677.316406 646.625 677.449219 647.140625 677.558594 647.664062 C 677.667969 648.1875 677.75 648.714844 677.808594 649.242188 C 677.863281 649.773438 677.894531 650.304688 677.898438 650.839844 C 677.902344 651.371094 677.882812 651.90625 677.835938 652.4375 C 677.785156 652.96875 677.714844 653.496094 677.613281 654.019531 C 677.515625 654.542969 677.390625 655.0625 677.238281 655.574219 C 677.089844 656.085938 676.914062 656.589844 676.714844 657.082031 C 676.511719 657.578125 676.289062 658.0625 676.042969 658.535156 C 675.792969 659.007812 675.523438 659.464844 675.230469 659.914062 C 674.9375 660.359375 674.625 660.789062 674.289062 661.203125 C 673.957031 661.621094 673.601562 662.019531 673.226562 662.398438 C 672.851562 662.777344 672.460938 663.140625 672.050781 663.480469 C 671.640625 663.824219 671.21875 664.144531 670.777344 664.445312 C 670.335938 664.746094 669.878906 665.023438 669.410156 665.277344 C 668.945312 665.535156 668.464844 665.765625 667.972656 665.972656 C 667.480469 666.183594 666.980469 666.367188 666.472656 666.527344 C 665.960938 666.683594 665.445312 666.820312 664.925781 666.925781 C 664.402344 667.035156 663.875 667.117188 663.34375 667.175781 C 662.816406 667.234375 662.28125 667.261719 661.75 667.269531 C 661.214844 667.273438 660.683594 667.25 660.152344 667.203125 C 659.621094 667.15625 659.09375 667.082031 658.570312 666.980469 C 658.042969 666.882812 657.527344 666.757812 657.015625 666.605469 C 656.503906 666.457031 656 666.28125 655.503906 666.082031 C 655.007812 665.882812 654.527344 665.65625 654.054688 665.410156 C 653.582031 665.164062 653.121094 664.894531 652.675781 664.601562 C 652.230469 664.308594 651.796875 663.996094 651.382812 663.660156 C 650.96875 663.324219 650.570312 662.96875 650.1875 662.597656 C 649.808594 662.222656 649.449219 661.832031 649.105469 661.421875 C 648.761719 661.011719 648.441406 660.585938 648.140625 660.144531 C 647.84375 659.703125 647.5625 659.25 647.308594 658.78125 C 647.054688 658.3125 646.820312 657.832031 646.613281 657.34375 C 646.40625 656.851562 646.21875 656.351562 646.0625 655.839844 C 645.902344 655.332031 645.769531 654.816406 645.660156 654.292969 C 645.550781 653.773438 645.46875 653.246094 645.410156 652.714844 C 645.355469 652.183594 645.324219 651.652344 645.320312 651.121094 C 645.3125 650.585938 645.335938 650.054688 645.382812 649.523438 C 645.429688 648.992188 645.503906 648.464844 645.605469 647.9375 C 645.703125 647.414062 645.828125 646.898438 645.980469 646.386719 C 646.128906 645.875 646.304688 645.371094 646.503906 644.875 C 646.707031 644.382812 646.929688 643.898438 647.175781 643.425781 C 647.425781 642.953125 647.695312 642.492188 647.988281 642.046875 C 648.277344 641.601562 648.59375 641.167969 648.929688 640.753906 C 649.261719 640.339844 649.617188 639.941406 649.992188 639.5625 C 650.363281 639.179688 650.757812 638.820312 651.167969 638.476562 C 651.574219 638.136719 652 637.8125 652.441406 637.515625 C 652.882812 637.214844 653.339844 636.9375 653.804688 636.679688 C 654.273438 636.425781 654.753906 636.191406 655.246094 635.984375 C 655.738281 635.777344 656.238281 635.59375 656.746094 635.433594 C 657.253906 635.273438 657.769531 635.140625 658.292969 635.03125 C 658.816406 634.921875 659.34375 634.839844 659.875 634.78125 C 660.402344 634.726562 660.933594 634.695312 661.46875 634.691406 C 662.003906 634.6875 662.535156 634.707031 663.066406 634.753906 C 663.597656 634.804688 664.125 634.878906 664.648438 634.976562 C 665.175781 635.078125 665.691406 635.203125 666.203125 635.351562 C 666.714844 635.503906 667.21875 635.675781 667.714844 635.878906 C 668.207031 636.078125 668.691406 636.300781 669.164062 636.546875 C 669.636719 636.796875 670.097656 637.066406 670.542969 637.359375 C 670.988281 637.652344 671.417969 637.964844 671.835938 638.300781 C 672.25 638.632812 672.648438 638.988281 673.027344 639.363281 C 673.410156 639.738281 673.769531 640.128906 674.113281 640.539062 C 674.453125 640.945312 674.777344 641.371094 675.074219 641.8125 C 675.375 642.253906 675.65625 642.710938 675.910156 643.175781 C 676.164062 643.644531 676.398438 644.125 676.605469 644.617188 Z M 676.605469 644.617188 " fill-opacity="1" fill-rule="nonzero"/><path stroke-linecap="butt" transform="matrix(1.416596, 0, 0, 1.416441, -1161.195514, -270.787555)" fill="none" stroke-linejoin="miter" d="M 1183.49047 668.857478 C 1073.088802 736.638511 935.64442 713.257943 876.43833 616.826199 C 817.232241 520.391697 858.569789 387.239941 968.965942 319.458907 C 1079.359337 251.677873 1216.809234 275.061199 1276.020839 371.492943 C 1335.229686 467.924687 1293.889381 601.079202 1183.49047 668.857478 Z M 1183.49047 668.857478 " stroke="#04b0a8" stroke-width="1" stroke-opacity="1" stroke-miterlimit="4"/><path stroke-linecap="butt" transform="matrix(1.416596, 0, 0, 1.416441, -1161.195514, -270.787555)" fill="none" stroke-linejoin="miter" d="M 1129.349892 675.084574 C 996.800056 670.614192 892.58344 575.194558 896.39705 462.11126 C 900.21066 349.027962 1010.620601 260.847535 1143.170437 265.317917 C 1275.720273 269.788299 1379.939646 365.205175 1376.120521 478.288473 C 1372.309668 591.371771 1261.899728 679.554956 1129.349892 675.084574 Z M 1129.349892 675.084574 " stroke="#04b0a8" stroke-width="1" stroke-opacity="0.4" stroke-miterlimit="4"/><path stroke-linecap="butt" transform="matrix(1.416596, 0, 0, 1.416441, -1161.195514, -270.787555)" fill="none" stroke-linejoin="miter" d="M 1070.030745 667.895008 C 937.483667 663.424626 833.264294 568.004991 837.077904 454.921694 C 840.891514 341.841154 951.301454 253.657968 1083.85129 258.128351 C 1216.401126 262.598733 1320.620499 358.018367 1316.809646 471.098907 C 1312.990521 584.184962 1202.580581 672.36539 1070.030745 667.895008 Z M 1070.030745 667.895008 " stroke="#04b0a8" stroke-width="1" stroke-opacity="0.4" stroke-miterlimit="4"/><path stroke-linecap="butt" transform="matrix(1.416596, 0, 0, 1.416441, -1161.195514, -270.787555)" fill="none" stroke-linejoin="miter" d="M 936.198676 514.922994 C 907.264322 385.494258 973.479954 260.66552 1083.900925 235.983274 C 1194.319138 211.29827 1307.390057 296.048003 1336.318895 425.476739 C 1365.258763 554.908233 1299.040374 679.734213 1188.619404 704.419217 C 1078.201191 729.104221 965.133029 644.354488 936.198676 514.922994 Z M 936.198676 514.922994 " stroke="#04b0a8" stroke-width="1" stroke-opacity="1" stroke-miterlimit="4"/><path fill="#04b0a8" d="M 636.574219 136.910156 C 636.78125 137.402344 636.964844 137.902344 637.125 138.410156 C 637.285156 138.917969 637.417969 139.433594 637.527344 139.957031 C 637.632812 140.480469 637.71875 141.003906 637.773438 141.535156 C 637.832031 142.066406 637.863281 142.597656 637.867188 143.132812 C 637.871094 143.664062 637.847656 144.199219 637.800781 144.730469 C 637.753906 145.261719 637.679688 145.789062 637.582031 146.3125 C 637.480469 146.835938 637.355469 147.355469 637.207031 147.867188 C 637.054688 148.378906 636.878906 148.882812 636.679688 149.375 C 636.480469 149.871094 636.257812 150.355469 636.007812 150.828125 C 635.761719 151.300781 635.492188 151.757812 635.199219 152.207031 C 634.90625 152.652344 634.59375 153.082031 634.257812 153.496094 C 633.921875 153.914062 633.566406 154.308594 633.195312 154.691406 C 632.820312 155.070312 632.429688 155.433594 632.019531 155.773438 C 631.609375 156.117188 631.183594 156.4375 630.742188 156.738281 C 630.300781 157.039062 629.847656 157.316406 629.378906 157.570312 C 628.910156 157.828125 628.429688 158.058594 627.941406 158.265625 C 627.449219 158.476562 626.949219 158.660156 626.4375 158.820312 C 625.929688 158.976562 625.414062 159.113281 624.890625 159.21875 C 624.371094 159.328125 623.84375 159.410156 623.3125 159.46875 C 622.78125 159.523438 622.25 159.554688 621.714844 159.558594 C 621.183594 159.566406 620.648438 159.542969 620.117188 159.496094 C 619.585938 159.449219 619.058594 159.375 618.535156 159.273438 C 618.011719 159.175781 617.492188 159.050781 616.980469 158.898438 C 616.46875 158.75 615.964844 158.574219 615.472656 158.375 C 614.976562 158.175781 614.492188 157.949219 614.019531 157.703125 C 613.546875 157.457031 613.089844 157.1875 612.640625 156.894531 C 612.195312 156.601562 611.765625 156.285156 611.351562 155.953125 C 610.933594 155.617188 610.535156 155.261719 610.15625 154.890625 C 609.777344 154.515625 609.414062 154.125 609.074219 153.714844 C 608.730469 153.304688 608.410156 152.878906 608.109375 152.4375 C 607.808594 151.996094 607.53125 151.542969 607.277344 151.074219 C 607.019531 150.605469 606.789062 150.125 606.578125 149.636719 C 606.371094 149.144531 606.1875 148.644531 606.027344 148.132812 C 605.867188 147.625 605.734375 147.109375 605.625 146.585938 C 605.519531 146.066406 605.433594 145.539062 605.378906 145.007812 C 605.320312 144.476562 605.289062 143.945312 605.285156 143.414062 C 605.28125 142.878906 605.304688 142.347656 605.351562 141.816406 C 605.398438 141.285156 605.472656 140.753906 605.570312 140.230469 C 605.671875 139.707031 605.796875 139.191406 605.945312 138.679688 C 606.097656 138.164062 606.273438 137.664062 606.472656 137.167969 C 606.671875 136.671875 606.894531 136.191406 607.144531 135.71875 C 607.390625 135.246094 607.660156 134.785156 607.953125 134.339844 C 608.246094 133.894531 608.558594 133.460938 608.894531 133.046875 C 609.230469 132.632812 609.585938 132.234375 609.957031 131.851562 C 610.332031 131.472656 610.722656 131.113281 611.132812 130.769531 C 611.542969 130.429688 611.96875 130.105469 612.410156 129.804688 C 612.851562 129.507812 613.304688 129.226562 613.773438 128.972656 C 614.242188 128.71875 614.722656 128.484375 615.210938 128.277344 C 615.703125 128.070312 616.203125 127.886719 616.714844 127.726562 C 617.222656 127.566406 617.738281 127.433594 618.261719 127.324219 C 618.78125 127.214844 619.308594 127.132812 619.839844 127.074219 C 620.371094 127.019531 620.902344 126.988281 621.4375 126.984375 C 621.96875 126.980469 622.5 127 623.035156 127.046875 C 623.566406 127.097656 624.09375 127.167969 624.617188 127.269531 C 625.140625 127.367188 625.660156 127.492188 626.171875 127.644531 C 626.683594 127.792969 627.1875 127.96875 627.679688 128.171875 C 628.175781 128.371094 628.660156 128.59375 629.132812 128.839844 C 629.605469 129.089844 630.0625 129.359375 630.511719 129.652344 C 630.957031 129.945312 631.386719 130.257812 631.800781 130.59375 C 632.21875 130.925781 632.617188 131.28125 632.996094 131.65625 C 633.375 132.027344 633.738281 132.421875 634.078125 132.832031 C 634.421875 133.238281 634.742188 133.664062 635.042969 134.105469 C 635.34375 134.546875 635.621094 135 635.875 135.46875 C 636.132812 135.9375 636.363281 136.417969 636.574219 136.910156 Z M 636.574219 136.910156 " fill-opacity="1" fill-rule="nonzero"/><path fill="#04b0a8" d="M 324.933594 726.121094 C 325.207031 726.761719 325.414062 727.425781 325.554688 728.105469 C 325.695312 728.789062 325.769531 729.480469 325.777344 730.175781 C 325.78125 730.875 325.71875 731.566406 325.589844 732.25 C 325.460938 732.9375 325.265625 733.601562 325.003906 734.25 C 324.742188 734.898438 324.417969 735.511719 324.035156 736.09375 C 323.652344 736.679688 323.21875 737.21875 322.730469 737.714844 C 322.238281 738.214844 321.707031 738.660156 321.128906 739.050781 C 320.554688 739.445312 319.945312 739.777344 319.300781 740.046875 C 318.660156 740.320312 317.996094 740.527344 317.316406 740.671875 C 316.632812 740.8125 315.941406 740.886719 315.242188 740.890625 C 314.546875 740.898438 313.855469 740.835938 313.167969 740.707031 C 312.484375 740.574219 311.816406 740.378906 311.171875 740.117188 C 310.523438 739.855469 309.910156 739.535156 309.324219 739.152344 C 308.742188 738.769531 308.203125 738.335938 307.703125 737.84375 C 307.207031 737.355469 306.761719 736.824219 306.371094 736.246094 C 305.976562 735.671875 305.644531 735.0625 305.371094 734.417969 C 305.097656 733.777344 304.890625 733.113281 304.75 732.429688 C 304.609375 731.75 304.535156 731.058594 304.527344 730.359375 C 304.523438 729.664062 304.585938 728.972656 304.714844 728.285156 C 304.84375 727.601562 305.039062 726.933594 305.300781 726.289062 C 305.5625 725.640625 305.886719 725.027344 306.269531 724.441406 C 306.652344 723.859375 307.085938 723.320312 307.574219 722.820312 C 308.0625 722.324219 308.597656 721.878906 309.175781 721.488281 C 309.75 721.09375 310.359375 720.761719 311.003906 720.488281 C 311.644531 720.21875 312.308594 720.011719 312.988281 719.867188 C 313.671875 719.726562 314.363281 719.652344 315.0625 719.644531 C 315.757812 719.640625 316.449219 719.703125 317.136719 719.832031 C 317.820312 719.960938 318.488281 720.160156 319.132812 720.417969 C 319.78125 720.679688 320.394531 721.003906 320.980469 721.386719 C 321.5625 721.769531 322.101562 722.203125 322.601562 722.691406 C 323.097656 723.183594 323.542969 723.714844 323.933594 724.292969 C 324.328125 724.867188 324.660156 725.476562 324.933594 726.121094 Z M 324.933594 726.121094 " fill-opacity="1" fill-rule="nonzero"/></svg>