<svg width="2347" height="1047" viewBox="0 0 2347 1047" fill="none" xmlns="http://www.w3.org/2000/svg">
<rect width="2347" height="1047" fill="white"/>
<circle cx="1099" cy="480" r="233" stroke="#04B0A8" stroke-width="2"/>
<circle cx="1286.75" cy="650.763" r="11.5" transform="rotate(-22.9927 1286.75 650.763)" fill="#04B0A8"/>
<path d="M1183.49 668.858C1073.09 736.639 935.645 713.257 876.438 616.825C817.231 520.392 858.571 387.239 968.967 319.459C1079.36 251.678 1216.81 275.06 1276.02 371.492C1335.23 467.925 1293.89 601.078 1183.49 668.858Z" stroke="#04B0A8"/>
<path d="M1129.35 675.084C996.801 670.614 892.583 575.195 896.396 462.112C900.21 349.029 1010.62 260.847 1143.17 265.317C1275.72 269.787 1379.94 365.206 1376.12 478.289C1372.31 591.373 1261.9 679.554 1129.35 675.084Z" stroke="#04B0A8" stroke-opacity="0.4"/>
<path d="M1070.03 667.895C937.484 663.425 833.265 568.006 837.079 454.923C840.892 341.84 951.302 253.658 1083.85 258.128C1216.4 262.598 1320.62 358.017 1316.81 471.1C1312.99 584.184 1202.58 672.365 1070.03 667.895Z" stroke="#04B0A8" stroke-opacity="0.4"/>
<path d="M936.198 514.924C907.264 385.494 973.479 260.666 1083.9 235.982C1194.32 211.297 1307.39 296.047 1336.32 425.477C1365.26 554.907 1299.04 679.735 1188.62 704.42C1078.2 729.104 965.132 644.354 936.198 514.924Z" stroke="#04B0A8"/>
<circle cx="1258.49" cy="292.324" r="11.5" transform="rotate(-22.9927 1258.49 292.324)" fill="#04B0A8"/>
<circle cx="1042.18" cy="706.741" r="7.5" transform="rotate(-22.9927 1042.18 706.741)" fill="#04B0A8"/>
</svg>
