<svg width="1964" height="1758" viewBox="0 0 1964 1758" fill="none" xmlns="http://www.w3.org/2000/svg">
<path fill-rule="evenodd" clip-rule="evenodd" d="M8.56085 1635.5C8.56085 1635.5 236.989 1863.96 455.753 1636.78C612.848 1473.65 767.498 1247.78 991.926 1554.75C1237.68 1890.89 1321.62 1141.96 1589.91 1439.46C1797.91 1670.11 1957.15 1440.51 1957.15 1440.51L1955.68 654.349L6.71094 648.787L8.56085 1635.5Z" fill="#50C8C3"/>
<path fill-rule="evenodd" clip-rule="evenodd" d="M1958.68 75.6776C1958.68 75.6776 1731.61 -62.2049 1511.23 72.1931C1352.98 168.694 1196.76 302.691 974.204 117.933C730.494 -84.3812 641.621 362.54 375.107 183.169C168.493 44.1063 7.65752 180.308 7.65752 180.308L3.99993 649.994L1954.09 665.18L1958.68 75.6776Z" fill="#50C8C3"/>
</svg>
